<?xml version="1.0" encoding="UTF-8" standalone="no"?>
<!-- Created with Inkscape (http://www.inkscape.org/) -->

<svg
   width="210mm"
   height="297mm"
   viewBox="0 0 210 297"
   version="1.1"
   id="svg1"
   xml:space="preserve"
   inkscape:version="1.3.2 (091e20ef0f, 2023-11-25, custom)"
   sodipodi:docname="beard.svg"
   xmlns:inkscape="http://www.inkscape.org/namespaces/inkscape"
   xmlns:sodipodi="http://sodipodi.sourceforge.net/DTD/sodipodi-0.dtd"
   xmlns="http://www.w3.org/2000/svg"
   xmlns:svg="http://www.w3.org/2000/svg"><sodipodi:namedview
     id="namedview1"
     pagecolor="#ffffff"
     bordercolor="#000000"
     borderopacity="0.25"
     inkscape:showpageshadow="2"
     inkscape:pageopacity="0.0"
     inkscape:pagecheckerboard="0"
     inkscape:deskcolor="#d1d1d1"
     inkscape:document-units="mm"
     showguides="true"
     inkscape:zoom="2.0739057"
     inkscape:cx="416.12306"
     inkscape:cy="270.74519"
     inkscape:window-width="1444"
     inkscape:window-height="1243"
     inkscape:window-x="0"
     inkscape:window-y="0"
     inkscape:window-maximized="0"
     inkscape:current-layer="g869" /><defs
     id="defs1" /><g
     inkscape:label="Layer 1"
     inkscape:groupmode="layer"
     id="layer1"><g
       id="g869"><path
         style="fill:none;stroke:#ff0000;stroke-width:0.188736"
         d="m 107.79189,113.76647 -10.905504,26.06025 10.903894,-8.41309 z"
         id="path25"
         sodipodi:nodetypes="cccc" /><path
         style="fill:none;stroke:#ff0000;stroke-width:0.188736"
         d="m 96.818727,139.87183 -8.953421,9.15639 9.201499,7.93855 z"
         id="path27"
         sodipodi:nodetypes="cccc" /><path
         style="fill:none;stroke:#ff0000;stroke-width:0.188736"
         d="m 87.684884,149.20864 6.675599,-15.33583 2.442981,6.01029 0.263341,17.44451 10.401685,-25.24807 c -3.54992,2.60495 -2.21563,1.57804 -10.66104,7.80356 z"
         id="path28"
         sodipodi:nodetypes="ccccccc" /><path
         style="fill:none;stroke:#ff0000;stroke-width:0.188736"
         d="m 87.684884,149.20864 3.247588,10.64487 -3.608429,6.31476 z"
         id="path29" /><path
         style="fill:none;stroke:#ff0000;stroke-width:0.188736"
         d="m 97.247227,157.14719 -5.953911,2.70632 -3.788854,-10.64487 z"
         id="path30" /><path
         style="fill:none;stroke:#ff0000;stroke-width:0.188736"
         d="m 97.247227,157.32761 4.330123,9.56234 -3.969279,6.13434 z"
         id="path31" /><path
         style="fill:none;stroke:#ff0000;stroke-width:0.188736"
         d="m 97.066805,157.32761 -8.840655,9.02108 8.299392,6.31476 0.541263,-7.39729 z"
         id="path32" /><path
         style="fill:none;stroke:#ff0000;stroke-width:0.188736"
         d="m 90.210787,177.53483 7.397284,-4.33012 1.623793,17.86174 z"
         id="path33" /><path
         style="fill:none;stroke:#ff0000;stroke-width:0.188736"
         d="m 107.81831,166.14732 -10.17641,7.06303 10.12262,12.61387 z"
         id="path34"
         sodipodi:nodetypes="cccc" /><path
         style="fill:none;stroke:#ff0000;stroke-width:0.188736"
         d="m 97.247227,157.32761 10.539183,-8.72402 -0.0319,17.56241 z"
         id="path35"
         sodipodi:nodetypes="cccc" /><path
         style="fill:none;stroke:#ff0000;stroke-width:0.188736"
         d="m 107.75679,131.61754 -5.27734,12.5393 5.25091,4.47762 z"
         id="path36"
         sodipodi:nodetypes="cccc" /><path
         style="fill:none;stroke:#ff0000;stroke-width:0.188736"
         d="m 107.71168,185.83422 -8.299394,5.0518 8.299394,18.22258 z"
         id="path37"
         sodipodi:nodetypes="cccc" /><path
         style="fill:none;stroke:#ff0000;stroke-width:0.188736"
         d="m 89.128258,177.89567 -3.247589,1.08253 -4.149696,18.403 6.314755,-2.88674 -2.165059,-14.97499 z"
         id="path38" /><path
         style="fill:none;stroke:#ff0000;stroke-width:0.188736"
         d="m 86.421933,179.51947 20.387637,30.31082 -17.320468,-31.7542 z"
         id="path39" /><path
         style="fill:none;stroke:#ff0000;stroke-width:0.188736"
         d="m 86.421933,180.06073 9.923187,17.32047 9.56234,11.54698 z"
         id="path40" /><path
         style="fill:none;stroke:#ff0000;stroke-width:0.188736"
         d="m 86.602355,180.42157 2.525903,11.90783 17.320472,17.32047 z"
         id="path41" /><path
         style="fill:none;stroke:#ff0000;stroke-width:0.188736"
         d="m 87.504462,181.86494 0.90211,12.4491 18.222578,15.33583 z"
         id="path42" /><path
         style="fill:none;stroke:#ff0000;stroke-width:0.188736"
         d="m 94.360483,121.60414 0.02916,12.2616 -1.60077,3.53416 -5.454824,-3.33572 z"
         id="path43"
         sodipodi:nodetypes="ccccc" /><path
         style="fill:none;stroke:#ff0000;stroke-width:0.188736"
         d="m 87.324043,134.05323 0.180419,15.15541 5.322908,-11.7643 z"
         id="path44"
         sodipodi:nodetypes="cccc" /><path
         style="fill:none;stroke:#ff0000;stroke-width:0.188736"
         d="m 87.324043,134.77491 -6.495177,13.53162 6.314755,0.54127 z"
         id="path45" /><path
         style="fill:none;stroke:#ff0000;stroke-width:0.188736"
         d="m 86.963199,149.56949 -10.10361,7.75812 4.330118,-9.02108 z"
         id="path46" /><path
         style="fill:none;stroke:#ff0000;stroke-width:0.188736"
         d="m 81.21226,148.39675 6.111783,17.5911 -10.464453,-8.93087 z"
         id="path47"
         sodipodi:nodetypes="cccc" /><path
         style="fill:none;stroke:#ff0000;stroke-width:0.188736"
         d="m 81.189707,151.01286 -4.330118,6.13433 3.969277,3.24759 1.443371,-5.41265 z"
         id="path48" /><path
         style="fill:none;stroke:#ff0000;stroke-width:0.188736"
         d="m 76.927248,157.1923 2.119953,6.35986 1.736559,-3.17993 z"
         id="path49"
         sodipodi:nodetypes="cccc" /><path
         style="fill:none;stroke:#ff0000;stroke-width:0.188736"
         d="m 76.927247,157.1923 -0.24808,5.54796 2.255271,0.87956 z"
         id="path50"
         sodipodi:nodetypes="cccc" /><path
         style="fill:none;stroke:#ff0000;stroke-width:0.188736"
         d="m 79.20507,163.28152 -1.804215,4.69096 1.623793,0.18043 0.721688,-2.5259 z"
         id="path51" /><path
         style="fill:none;stroke:#ff0000;stroke-width:0.188736"
         d="m 80.107178,165.98785 1.082529,1.98463 -2.345481,0.54127 z"
         id="path52" /><path
         style="fill:none;stroke:#ff0000;stroke-width:0.188736"
         d="m 81.189707,167.97248 3.608433,9.20151 -6.134333,-8.2994 z"
         id="path53" /><path
         style="fill:none;stroke:#ff0000;stroke-width:0.188736"
         d="m 81.370129,167.97248 5.773492,-1.80421 -1.804218,10.82529 z"
         id="path54" /><path
         style="fill:none;stroke:#ff0000;stroke-width:0.188736"
         d="m 88.22615,166.52911 1.262952,10.8253 7.397284,-4.33012 z"
         id="path55" /><path
         style="fill:none;stroke:#ff0000;stroke-width:0.188736"
         d="m 78.302963,169.05501 -9.201499,2.52591 15.877098,5.95391 z"
         id="path56" /><path
         style="fill:none;stroke:#ff0000;stroke-width:0.188736"
         d="m 72.709894,148.30653 9.742765,-11.54698 4.690962,-2.16506 -6.134336,12.99036 -4.149696,9.56234 z"
         id="path57" /><path
         style="fill:none;stroke:#ff0000;stroke-width:0.188736"
         d="m 82.633081,136.21829 11.54698,-14.61415 -6.856018,12.26867 z"
         id="path58" /><path
         style="fill:none;stroke:#ff0000;stroke-width:0.188736"
         d="M 70.194937,139.24355 80.30761,129.36227 94.181938,121.85742 73.25116,147.58485 Z"
         id="path59"
         sodipodi:nodetypes="ccccc" /><path
         style="fill:none;stroke:#ff0000;stroke-width:0.188736"
         d="m 69.281883,140.90925 -10.103606,16.23794 5.232225,-0.36084 z"
         id="path60" /><path
         style="fill:none;stroke:#ff0000;stroke-width:0.188736"
         d="m 69.642727,141.27009 -0.180422,11.18614 -5.232225,5.0518 z"
         id="path61" /><path
         style="fill:none;stroke:#ff0000;stroke-width:0.188736"
         d="M 69.281883,141.63094 57.19364,153.71918 69.823149,152.27581 Z"
         id="path62" /><path
         style="fill:none;stroke:#ff0000;stroke-width:0.188736"
         d="m 61.704177,185.47338 6.314757,-13.53162 1.804215,-19.12469 -2.345481,1.6238 z"
         id="path63" /><path
         style="fill:none;stroke:#ff0000;stroke-width:0.188736"
         d="m 61.523758,185.83422 2.886744,-28.86745 3.067166,-2.70633 z"
         id="path64" /><path
         style="fill:none;stroke:#ff0000;stroke-width:0.188736"
         d="m 61.343335,185.6538 -1.984636,-18.403 -4.871384,4.51054 z"
         id="path65" /><path
         style="fill:none;stroke:#ff0000;stroke-width:0.188736"
         d="m 61.343335,185.83422 -2.706324,-20.74848 -5.593067,6.31475 z"
         id="path66" /><path
         style="fill:none;stroke:#ff0000;stroke-width:0.188736"
         d="m 61.523758,185.6538 -3.247589,-22.5527 -4.690962,5.59307 z"
         id="path67" /><path
         style="fill:none;stroke:#ff0000;stroke-width:0.188736"
         d="m 61.343335,183.66916 -3.608432,-23.09396 -4.149696,5.59307 z"
         id="path68" /><path
         style="fill:none;stroke:#ff0000;stroke-width:0.188736"
         d="m 61.343335,183.66916 -3.969276,-24.53733 -2.345478,2.16506 z"
         id="path69" /><path
         style="fill:none;stroke:#ff0000;stroke-width:0.188736"
         d="M 56.291532,152.81707 51.239726,177.71525 43.66202,162.74026 Z"
         id="path70" /><path
         style="fill:none;stroke:#ff0000;stroke-width:0.188736"
         d="m 55.569844,154.98213 -9.923187,8.29939 5.412647,14.25331 z"
         id="path71" /><path
         style="fill:none;stroke:#ff0000;stroke-width:0.188736"
         d="m 55.389422,156.24508 -7.758126,6.6756 2.886745,13.71204 z"
         id="path72" /><path
         style="fill:none;stroke:#ff0000;stroke-width:0.188736"
         d="m 49.255089,164.00321 1.443374,13.53162 4.51054,-21.10933 z"
         id="path73" /><path
         style="fill:none;stroke:#ff0000;stroke-width:0.188736"
         d="m 55.209003,157.68846 -4.51054,6.49517 v 13.53162 z"
         id="path74" /><path
         style="fill:none;stroke:#ff0000;stroke-width:0.188736"
         d="m 55.750266,152.63665 6.314755,-17.32047 -11.54698,12.99035 -7.397284,13.71204 z"
         id="path75" /><path
         style="fill:none;stroke:#ff0000;stroke-width:0.188736"
         d="m 62.59534,134.92438 23.285329,-20.61903 -5.443604,14.89838 z"
         id="path76"
         sodipodi:nodetypes="cccc" /><path
         style="fill:none;stroke:#ff0000;stroke-width:0.188736"
         d="m 80.320434,129.22375 -23.487638,23.05206 6.134332,-17.5009 z"
         id="path77"
         sodipodi:nodetypes="cccc" /><path
         style="fill:none;stroke:#ff0000;stroke-width:0.188736"
         d="m 85.880669,114.38728 21.789111,-8.73997 -13.252697,15.93494 -14.151371,7.74906 z"
         id="path78"
         sodipodi:nodetypes="ccccc" /><path
         style="fill:none;stroke:#ff0000;stroke-width:0.188736"
         d="m 107.64586,105.64543 -12.924533,15.59787 0.360841,11.7274 1.804218,-1.44337 z"
         id="path79"
         sodipodi:nodetypes="ccccc" /><path
         style="fill:none;stroke:#ff0000;stroke-width:0.188736"
         d="m 107.81534,105.56772 -10.928954,25.95961 -0.06379,8.39601 z"
         id="path80"
         sodipodi:nodetypes="cccc" /><path
         style="fill:none;stroke:#ff0000;stroke-width:0.188736"
         d="m 90.210787,108.07252 -17.140049,6.31476 -10.464451,18.76384 z"
         id="path81" /><path
         style="fill:none;stroke:#ff0000;stroke-width:0.188736"
         d="m 72.709894,114.02644 -25.078598,27.6045 15.335832,-8.66024 z"
         id="path82" /><path
         style="fill:none;stroke:#ff0000;stroke-width:0.188736"
         d="m 47.270452,141.81136 -4.510539,6.49517 19.846374,-14.43372 z"
         id="path83" /><path
         style="fill:none;stroke:#ff0000;stroke-width:0.188736"
         d="m 49.796355,147.04358 4.330118,-5.41264 -11.005716,7.21686 z"
         id="path84" /><path
         style="fill:none;stroke:#ff0000;stroke-width:0.188736"
         d="m 49.796355,147.58485 -6.675598,1.62379 v 12.80993 z"
         id="path85" /><path
         style="fill:none;stroke:#ff0000;stroke-width:0.188736"
         d="m 38.429795,144.33726 0.902107,9.56234 3.067167,-5.77349 z"
         id="path86" /><path
         style="fill:none;stroke:#ff0000;stroke-width:0.188736"
         d="m 40.05359,135.67702 -1.262951,7.57771 3.247588,3.96927 0.541264,-14.07288 z"
         id="path87" /><path
         style="fill:none;stroke:#ff0000;stroke-width:0.188736"
         d="m 42.218649,132.79028 4.690959,-3.78885 -3.788851,17.14005 z"
         id="path88" /><path
         style="fill:none;stroke:#ff0000;stroke-width:0.188736"
         d="m 46.909608,128.64058 3.247589,-2.16506 -6.314755,20.20722 z"
         id="path89" /><path
         style="fill:none;stroke:#ff0000;stroke-width:0.188736"
         d="M 50.518041,125.57342 60.802069,119.98035 44.203286,146.3219 Z"
         id="path90" /><path
         style="fill:none;stroke:#ff0000;stroke-width:0.188736"
         d="m 61.343335,118.89782 11.005717,-4.69097 -24.176492,26.7024 z"
         id="path91" /><path
         style="fill:none;stroke:#ff0000;stroke-width:0.188736"
         d="m 73.612001,112.76348 5.051806,-8.29939 -17.681316,-2.5259 z"
         id="path92" /><path
         style="fill:none;stroke:#ff0000;stroke-width:0.188736"
         d="m 61.343335,102.65987 -28.145766,23.45481 20.026794,-10.8253 z"
         id="path93" /><path
         style="fill:none;stroke:#ff0000;stroke-width:0.188736"
         d="m 64.590924,106.44873 -11.186139,9.02108 6.856021,4.33011 z"
         id="path94" /><path
         style="fill:none;stroke:#ff0000;stroke-width:0.188736"
         d="M 33.558413,125.75384 59.71954,119.43908 42.940335,132.9707 Z"
         id="path95" /><path
         style="fill:none;stroke:#ff0000;stroke-width:0.188736"
         d="m 33.558413,126.11468 0.541264,17.14005 8.660236,-10.64487 z"
         id="path96" /><path
         style="fill:none;stroke:#ff0000;stroke-width:0.188736"
         d="m 59.358699,103.38156 -22.191856,13.17078 10.644873,-3.60843 z"
         id="path864" /><path
         style="fill:none;stroke:#ff0000;stroke-width:0.188736"
         d="M 60.080384,101.75777 35.182206,110.418 51.059304,98.329757 51.780992,101.03608 Z"
         id="path865" /><path
         style="fill:none;stroke:#ff0000;stroke-width:0.188736"
         d="m 51.961414,100.31439 3.067167,-8.840651 5.051803,10.284031 z"
         id="path866" /><path
         style="fill:none;stroke:#ff0000;stroke-width:0.188736"
         d="m 58.276169,80.2876 2.165059,20.56806 -5.953913,-10.825295 z"
         id="path867" /><path
         style="fill:none;stroke:#ff0000;stroke-width:0.188736"
         d="m 57.554481,79.024648 -0.721685,-24.176489 -7.758129,19.48553 5.412648,14.614147 z"
         id="path868"
         sodipodi:nodetypes="ccccc" /><path
         style="fill:none;stroke:#ff0000;stroke-width:0.188736"
         d="m 49.029564,74.356242 -5.0067,-20.410191 -0.180422,29.589137 5.187122,-9.178946"
         id="path869"
         sodipodi:nodetypes="cccc" /></g></g></svg>
